<?xml version="1.0" encoding="UTF-8"?>
<svg xmlns="http://www.w3.org/2000/svg" xmlns:xlink="http://www.w3.org/1999/xlink" width="154.84pt" height="154.84pt" viewBox="0 0 154.84 154.84" version="1.1">
<defs>
<clipPath id="clip1">
  <path d="M 0 0 L 154.839844 0 L 154.839844 154.839844 L 0 154.839844 Z M 0 0 "/>
</clipPath>
</defs>
<g id="surface1">
<g clip-path="url(#clip1)" clip-rule="nonzero">
<path style=" stroke:none;fill-rule:nonzero;fill:rgb(13.699341%,12.199402%,12.5%);fill-opacity:1;" d="M 111.964844 59.703125 C 111.992188 60.464844 112.007813 61.238281 112.007813 62.019531 C 112.007813 85.558594 94.089844 112.703125 61.304688 112.703125 C 51.238281 112.703125 41.871094 109.769531 33.988281 104.699219 C 35.386719 104.867188 36.800781 104.957031 38.234375 104.957031 C 46.59375 104.957031 54.269531 102.109375 60.375 97.328125 C 52.578125 97.175781 46 92.03125 43.730469 84.945313 C 44.8125 85.160156 45.921875 85.265625 47.082031 85.265625 C 48.695313 85.265625 50.277344 85.054688 51.769531 84.644531 C 43.625 83.011719 37.472656 75.8125 37.472656 67.179688 C 37.472656 67.101563 37.472656 67.027344 37.488281 66.949219 C 39.878906 68.289063 42.636719 69.082031 45.5625 69.171875 C 40.777344 65.992188 37.625 60.527344 37.625 54.34375 C 37.625 51.085938 38.507813 48.023438 40.03125 45.390625 C 48.816406 56.171875 61.960938 63.265625 76.757813 64.011719 C 76.453125 62.699219 76.300781 61.347656 76.300781 59.945313 C 76.300781 50.109375 84.28125 42.128906 94.117188 42.128906 C 99.25 42.128906 103.875 44.292969 107.117188 47.746094 C 111.183594 46.957031 115.007813 45.480469 118.449219 43.425781 C 117.109375 47.59375 114.292969 51.085938 110.609375 53.289063 C 114.21875 52.867188 117.660156 51.90625 120.839844 50.492188 C 118.46875 54.054688 115.433594 57.1875 111.964844 59.703125 Z M 77.410156 -0.00390625 C 34.730469 -0.00390625 0 34.730469 0 77.410156 C 0 120.109375 34.730469 154.839844 77.410156 154.839844 C 120.109375 154.839844 154.84375 120.109375 154.84375 77.410156 C 154.84375 34.730469 120.109375 -0.00390625 77.410156 -0.00390625 "/>
</g>
</g>
</svg>
